Coordinates
version=1
nRows=16
nColumns=32
inDegrees=yes

Units are S.I. units (second, meters, Newtons, ...)
If the header above contains a line with 'inDegrees', this indicates whether rotational values are in degrees (yes) or radians (no).

endheader
time	pelvis_tilt	pelvis_list	pelvis_rotation	pelvis_tx	pelvis_ty	pelvis_tz	hip_flexion_r	hip_adduction_r	hip_rotation_r	knee_angle_r	knee_adduction_r	med_cond_adduction_r	lat_cond_adduction_r	patella_r_constrained_knee_angle	ankle_angle_r	subtalar_angle_r	mtp_angle_r	hip_flexion_l	hip_adduction_l	hip_rotation_l	knee_angle_l	knee_adduction_l	med_cond_adduction_l	lat_cond_adduction_l	patella_l_constrained_knee_angle	ankle_angle_l	subtalar_angle_l	mtp_angle_l	lumbar_extension	lumbar_bending	lumbar_rotation
      0.45416667	      6.97930797	     -6.41670137	    -93.03560009	      0.51981483	      1.10394474	     -1.51868777	    -13.11694595	     -8.31923895	    -39.39061290	    -11.76559116	      0.00000000	     -0.00000000	      0.00000000	     -0.20534830	     -7.20858319	     19.83081187	      0.00000000	      9.38362342	      5.23602224	      6.22495738	    -12.73633436	      0.00000000	     -0.00000000	      0.00000000	     -0.22229097	    -18.04717871	    -11.67968769	     -0.00000000	      0.00000000	      0.00000000	      0.00000000
      0.45833333	      6.09449342	     -6.16122600	    -93.51930861	      0.51905356	      1.10176314	     -1.51226528	    -13.05151610	     -7.50978447	    -39.58518821	    -11.92637636	      0.00000000	      0.00000000	     -0.00000000	     -0.20815454	     -7.38948857	     19.82861794	     -0.00000000	     10.23855362	      4.08733808	      5.28336944	    -12.29227287	     -0.00000000	     -0.00000000	      0.00000000	     -0.21454063	    -17.39039234	    -10.98729813	      0.00000000	      0.00000000	      0.00000000	      0.00000000
      0.46250000	      5.08655550	     -5.77744001	    -93.96147913	      0.51833266	      1.09941874	     -1.50589546	    -12.87163623	     -6.54200957	    -39.70371282	    -12.07033135	      0.00000000	     -0.00000000	      0.00000000	     -0.21066702	     -7.49080356	     19.82429110	      0.00000000	     11.21260924	      2.78031768	      4.37525351	    -11.90211898	      0.00000000	     -0.00000000	      0.00000000	     -0.20773116	    -16.46632051	     -9.97439034	      0.00000000	      0.00000000	      0.00000000	      0.00000000
      0.46666667	      4.12174931	     -5.43713209	    -94.44842882	      0.51752636	      1.09714078	     -1.49946732	    -12.75967512	     -5.63188317	    -39.76540303	    -12.19670424	      0.00000000	      0.00000000	     -0.00000000	     -0.21287265	     -7.59819464	     19.81996309	     -0.00000000	     12.13381249	      1.50182214	      3.28985325	    -11.52970440	     -0.00000000	     -0.00000000	      0.00000000	     -0.20123130	    -15.57378899	     -8.87605676	     -0.00000000	      0.00000000	      0.00000000	      0.00000000
      0.47083333	      3.17990714	     -5.09894648	    -94.92653096	      0.51666670	      1.09483940	     -1.49303232	    -12.66535936	     -4.74190052	    -39.80628244	    -12.32356741	     -0.00000000	      0.00000000	     -0.00000000	     -0.21508683	     -7.66501543	     19.81477108	      0.00000000	     13.01971794	      0.22882734	      2.16584040	    -11.13532840	      0.00000000	      0.00000000	     -0.00000000	     -0.19434814	    -14.67302260	     -7.69538447	      0.00000000	      0.00000000	      0.00000000	      0.00000000
      0.47500000	      2.20596018	     -4.75356807	    -95.38334190	      0.51577236	      1.09257680	     -1.48663221	    -12.58843999	     -3.81206642	    -39.83335794	    -12.44072878	     -0.00000000	      0.00000000	     -0.00000000	     -0.21713168	     -7.80729445	     19.80905166	     -0.00000000	     13.90015688	     -1.08994684	      1.02169728	    -10.76936193	     -0.00000000	      0.00000000	     -0.00000000	     -0.18796082	    -13.75633017	     -6.34876544	     -0.00000000	      0.00000000	      0.00000000	      0.00000000
      0.47916667	      1.30315530	     -4.39168291	    -95.82913779	      0.51491199	      1.09031096	     -1.48012888	    -12.51160011	     -2.95616835	    -39.85375158	    -12.55864876	      0.00000000	     -0.00000000	      0.00000000	     -0.21918977	     -7.93681438	     19.80279505	     -0.00000000	     14.78042169	     -2.34699349	     -0.23466444	    -10.42280868	      0.00000000	      0.00000000	     -0.00000000	     -0.18191233	    -12.79535974	     -4.90523208	     -0.00000000	     -0.00000000	      0.00000000	      0.00000000
      0.48333333	      0.40494657	     -4.03728647	    -96.22818873	      0.51406378	      1.08805812	     -1.47368875	    -12.45548157	     -2.10095981	    -39.86949361	    -12.69148423	     -0.00000000	     -0.00000000	      0.00000000	     -0.22150819	     -8.06940022	     19.79551938	      0.00000000	     15.63895782	     -3.59173659	     -1.45748337	    -10.06046284	      0.00000000	      0.00000000	     -0.00000000	     -0.17558820	    -11.71716492	     -3.37070563	      0.00000000	     -0.00000000	     -0.00000000	      0.00000000
      0.48750000	     -0.51045955	     -3.68919977	    -96.62657281	      0.51317419	      1.08586698	     -1.46713980	    -12.43710026	     -1.22391797	    -39.88074274	    -12.78490796	     -0.00000000	      0.00000000	     -0.00000000	     -0.22313874	     -8.27200199	     19.78790475	     -0.00000000	     16.47781010	     -4.88563083	     -2.86608502	     -9.76426987	     -0.00000000	      0.00000000	     -0.00000000	     -0.17041866	    -10.69432241	     -1.55325726	      0.00000000	     -0.00000000	     -0.00000000	      0.00000000
      0.49166667	     -1.40641830	     -3.31634426	    -96.97100860	      0.51226595	      1.08362658	     -1.46065043	    -12.40331084	     -0.35320158	    -39.89056394	    -12.89447825	     -0.00000000	     -0.00000000	      0.00000000	     -0.22505110	     -8.44799005	     19.77874294	      0.00000000	     17.34458933	     -6.16372159	     -4.35697970	     -9.50440322	      0.00000000	      0.00000000	     -0.00000000	     -0.16588313	     -9.61222049	      0.57723403	     -0.00000000	      0.00000000	     -0.00000000	     -0.00000000
      0.49583333	     -2.21563881	     -3.04223403	    -97.34670830	      0.51143923	      1.08157014	     -1.45400884	    -12.48191364	      0.39126452	    -39.89739337	    -13.01421609	     -0.00000000	     -0.00000000	      0.00000000	     -0.22714092	     -8.61807088	     19.76979106	      0.00000000	     18.06866073	     -7.34324999	     -5.91714115	     -9.21408673	     -0.00000000	      0.00000000	     -0.00000000	     -0.16081615	     -8.65141644	      2.64794788	     -0.00000000	      0.00000000	     -0.00000000	     -0.00000000
      0.50000000	     -3.01741677	     -2.69452800	    -97.64498865	      0.51066537	      1.07945850	     -1.44739468	    -12.49322072	      1.15027117	    -39.90426169	    -13.12509686	      0.00000000	      0.00000000	     -0.00000000	     -0.22907615	     -8.86277538	     19.75889363	      0.00000000	     18.86845495	     -8.51781030	     -7.44316864	     -8.96639880	     -0.00000000	      0.00000000	     -0.00000000	     -0.15649318	     -7.58276923	      4.92428103	      0.00000000	      0.00000000	     -0.00000000	     -0.00000000
      0.50416667	     -3.77477021	     -2.35459494	    -97.88239746	      0.50997435	      1.07745322	     -1.44091448	    -12.50457068	      1.87401891	    -39.91059044	    -13.23422891	      0.00000000	     -0.00000000	      0.00000000	     -0.23098087	     -9.12301980	     19.74573583	      0.00000000	     19.70086847	     -9.62301167	     -8.95872142	     -8.80280746	     -0.00000000	      0.00000000	     -0.00000000	     -0.15363797	     -6.59251191	      7.16041194	      0.00000000	      0.00000000	     -0.00000000	     -0.00000000
      0.50833333	     -4.44953642	     -2.11250461	    -98.17316086	      0.50937238	      1.07557014	     -1.43415163	    -12.63252263	      2.46156135	    -39.91512763	    -13.35110578	     -0.00000000	      0.00000000	     -0.00000000	     -0.23302075	     -9.39253211	     19.73371279	     -0.00000000	     20.36903691	    -10.62148029	    -10.60954323	     -8.62139842	      0.00000000	      0.00000000	     -0.00000000	     -0.15047179	     -5.58909405	      9.36453465	      0.00000000	      0.00000000	     -0.00000000	     -0.00000000
      0.51250000	     -5.07842278	     -1.87653448	    -98.43522182	      0.50885206	      1.07378134	     -1.42741095	    -12.75976979	      2.99223888	    -39.91904825	    -13.48037511	      0.00000000	     -0.00000000	      0.00000000	     -0.23527693	     -9.71724314	     19.72030127	      0.00000000	     21.00892312	    -11.56655974	    -12.26337669	     -8.44556766	     -0.00000000	      0.00000000	     -0.00000000	     -0.14740296	     -4.65478084	     11.68934257	     -0.00000000	      0.00000000	     -0.00000000	     -0.00000000
      0.51666667	     -5.61559419	     -1.69037296	    -98.68276768	      0.50844852	      1.07216625	     -1.42057727	    -12.92994793	      3.41028386	    -39.92260679	    -13.61832867	     -0.00000000	      0.00000000	     -0.00000000	     -0.23768467	    -10.03596597	     19.70548572	      0.00000000	     21.57880752	    -12.38048138	    -13.92617894	     -8.28170384	     -0.00000000	     -0.00000000	      0.00000000	     -0.14454300	     -3.85506773	     13.85489574	     -0.00000000	      0.00000000	     -0.00000000	     -0.00000000
